<svg xmlns="http://www.w3.org/2000/svg" viewBox="0 0 64 64" width="64" height="64">
  <circle cx="32" cy="32" r="32" fill="#2aa6e2"/>
  <ellipse cx="30" cy="46" rx="20" ry="9" fill="#0d6ca4" opacity="0.35"/>
  <path d="M15 40c0-9 8-15 17-15 3 0 6 1 8 2 1-4 4-7 8-7-1 3-1 5 0 7 4 3 6 7 6 12 0 2-1 4-3 4H18c-2 0-3-1-3-3z" fill="#ffc21f"/>
  <circle cx="46" cy="26" r="9" fill="#ffc21f"/>
  <circle cx="48" cy="24" r="2.1" fill="#1d3a4e"/>
  <path d="M53 27c4 0 7 1 7 3s-3 3-7 3z" fill="#ff7a35"/>
</svg>
